PathFileType	4	(X/Y/Z)	Patient5_TMGait_0pt45_1_left_13.trc.trc
DataRate	CameraRate	NumFrames	NumMarkers	Units	OrigDataRate	OrigDataStartFrame	OrigNumFrames
57.142857142857	57.142857142857	4	32	mm	57.142857142857	1	       141
Frame#	Time	R.ASIS			L.ASIS			Chest			R.Shoulder			Neck			L.Shoulder			L.Elbow			L.Wrist			R.Elbow			R.Wrist			L.Thigh.Superior			L.Thigh.Lateral			L.Thigh.Inferior			L.Patella			L.Shank.Superior			L.Shank.Lateral			L.Shank.Inferior			L.Heel			L.Midfoot.Lateral			L.Midfoot.Superior			L.Toe			R.Thigh.Superior			R.Thigh.Lateral			R.Thigh.Inferior			R.Patella			R.Shank.Superior			R.Shank.Lateral			R.Shank.Inferior			R.Heel			R.Midfoot.Lateral			R.Midfoot.Superior			R.Toe			
		X1	Y1	Z1	X2	Y2	Z2	X3	Y3	Z3	X4	Y4	Z4	X5	Y5	Z5	X6	Y6	Z6	X7	Y7	Z7	X8	Y8	Z8	X9	Y9	Z9	X10	Y10	Z10	X11	Y11	Z11	X12	Y12	Z12	X13	Y13	Z13	X14	Y14	Z14	X15	Y15	Z15	X16	Y16	Z16	X17	Y17	Z17	X18	Y18	Z18	X19	Y19	Z19	X20	Y20	Z20	X21	Y21	Z21	X22	Y22	Z22	X23	Y23	Z23	X24	Y24	Z24	X25	Y25	Z25	X26	Y26	Z26	X27	Y27	Z27	X28	Y28	Z28	X29	Y29	Z29	X30	Y30	Z30	X31	Y31	Z31	X32	Y32	Z32	

1	20.180000000000	1037.381355501831	976.411660343378	585.575154644076	1027.748991652406	958.960595813036	343.552099344859	1090.040452027323	1438.295860710659	491.308508531585	982.232030071983	1494.907810893355	656.175228535570	963.621030176383	1559.840189531966	472.974893961958	1037.207627261480	1511.634464878593	293.710231004733	971.156120995096	1202.445070637321	142.427969401417	1062.974851846385	927.256179940008	169.578656802223	906.893534190105	1171.102228035893	788.985170438250	1134.085509652400	1004.549785225460	718.028278800389	1036.200548854166	734.091642804933	322.410980874084	957.158616305773	669.550021660099	278.055184252440	1029.091988506220	603.213320643663	331.094444992918	1009.747409189859	464.202802804284	320.854460390842	919.044315692978	386.662728374692	345.536140435966	819.699470821492	362.744067455218	274.600247273656	832.645536257193	294.130268724463	358.079989783053	601.833462908691	143.376470470981	362.313288061643	671.682963061821	78.111169786134	308.164009313394	785.017449388609	97.103808718565	344.867855039197	858.693380866155	41.281379391339	360.690095197389	1057.464812434017	746.135171404782	608.795335980913	970.928217917498	664.183293990894	654.745562901044	1058.045988039534	616.694946055492	584.754388633538	1059.934298464027	519.424817048723	612.675841812547	1023.618559240637	419.752344735186	572.008754091606	949.762822493751	349.838721109571	649.973371497244	1008.913463983814	280.257266640074	570.201353738102	891.823576978904	54.092588357902	532.592288276309	966.681472815018	25.578945581470	609.895664227217	1073.628139216274	88.347786525289	591.042604247775	1176.811765042762	44.217556114479	596.185526520535	
2	20.197500000000	1037.232313884495	975.043864224967	587.537942370092	1025.180924632611	957.863846459625	346.330773232842	1091.238110909287	1436.768310920272	494.379809346049	985.301179201652	1493.504712777281	660.291352141804	964.558639641812	1558.551782791535	477.366065197856	1036.642066803858	1510.633172831601	297.343842955194	965.780467090146	1202.622313884727	146.297864345081	1056.196263958460	926.826179139390	171.895500923111	910.415054950442	1170.664050078608	795.375874385091	1137.035237856140	1003.906005662302	723.267696952887	1043.033246220375	735.768465997380	320.748221650063	967.755899740625	668.916509633638	276.508736887394	1043.982405937466	605.829609882065	328.463709582545	1030.191771574368	465.436777001632	318.937366744980	936.031590916461	387.795980809252	343.512078344046	837.043590075663	367.412177190725	272.242665723617	845.926131803210	299.958564049340	356.460979418727	610.269980683542	165.986790319209	359.755304606845	673.129341250301	94.526982615556	306.481792933614	786.890610453598	103.002946824470	343.643734854503	853.102359224275	40.288138341470	360.204678192829	1051.791183541443	743.761094170136	608.451948126454	963.802855070366	664.110132427246	656.266335181914	1047.670851358621	614.680227477678	584.366766458360	1048.048327905989	518.261719244779	612.173323349714	1011.000218624425	419.880992247457	572.281085742620	939.091692885200	349.855768389820	651.019515288912	998.130664921312	280.699923986898	570.569030803080	883.281449775141	53.917364426711	532.887265539063	958.135693103301	25.363462876729	610.084397104969	1065.031743000143	88.273758289170	591.035133726734	1168.427903082235	44.316590291404	596.195413931711	
3	20.215000000000	1036.860379935915	973.609447059214	589.331749974762	1022.632117730343	956.702620939713	349.008699944378	1092.420513948550	1435.146543943164	497.250609187549	988.339563706328	1491.944298893019	664.226542839908	965.479930585123	1557.163240153990	481.580867476172	1036.009665120755	1509.555573494059	300.798474552560	960.452516124318	1202.564193337300	150.195652954326	1049.651259904927	926.219260786675	174.102007990835	914.055771975292	1170.077079026102	801.663727478167	1139.938186836491	1002.844576991300	728.536203272196	1049.695203662397	737.683946052259	319.396163712860	978.262617246511	668.501599742333	275.201195010206	1058.602134658220	608.790883257951	326.223032927918	1050.326874993806	467.005650093059	317.372169697707	952.906605134821	389.279973245373	341.820349321547	854.386965842250	372.241324564397	270.035418378577	859.180848367313	306.038935896146	355.001563040113	619.075406255824	188.547792509295	357.124722166664	675.151330392518	111.209996272032	304.706862915261	789.082131049411	109.439839002232	342.592416373169	847.789212184205	39.440478367492	359.788406043598	1046.089891999009	741.459113869515	608.390686150782	956.693839923504	664.023768535110	657.877553989067	1037.538955815984	612.759590418646	584.250729649956	1036.471169170642	517.112397388003	611.919017934953	998.708763305473	420.012838190939	572.705131725602	928.582960067660	349.879282875876	652.126238792482	987.556742459405	281.124187215730	571.042416016384	874.831822234245	53.757126945309	533.188234868892	949.683353018643	25.152732982378	610.277863376452	1056.528644926274	88.197591863538	591.046027417135	1160.115579203607	44.432428219625	596.213423350099	
4	20.232500000000	1036.094533834373	972.126705953742	590.883359971067	1020.120106215007	955.465547908297	351.518040286613	1093.591021295876	1433.385456419373	499.729291295923	991.340826188274	1490.159500631491	667.780644069605	966.414808362641	1555.644474135478	485.419617628661	1035.322620466536	1508.368289046209	303.889219713037	955.297156887403	1202.122011663962	154.082207840267	1043.575639974139	925.327313486206	176.143889398466	917.894458934649	1169.285035661293	807.692186769980	1142.736792044790	1001.080246359460	733.818825118907	1055.997463029702	740.099191725171	318.658362607288	988.538393287134	668.577238811095	274.358325298969	1072.626053380046	612.431150027392	324.743942782064	1069.798479584151	469.268707224115	316.470485925899	969.529760467867	391.412498668085	340.738577380235	871.641201002114	377.310076863247	268.157813638309	872.418691494563	312.437426164602	353.855628465459	628.564138302808	210.301523425346	354.412569415343	678.521230133821	127.806428714696	302.795836767399	792.250799216734	116.630332888601	341.832823657003	843.762873011108	38.994639155651	359.484249358897	1040.438787934098	739.320946251394	608.807248900535	949.718738835170	663.917311547159	659.616181008391	1027.968800002526	611.015851450394	584.588405558009	1025.566502103281	515.996529802336	612.078439126057	987.127780812049	420.138516048659	573.373104604597	918.462207908219	349.911571468501	653.311566927574	977.423438672229	281.499437278465	571.679040702972	866.529654634342	53.622370109570	533.494418224664	941.383164785304	24.954249307999	610.476733726284	1048.178126598420	88.121926894090	591.092996129310	1151.920642820244	44.569323491121	596.247106000671	
